<?xml version="1.0" encoding="UTF-8"?>
<svg width="600" height="400" xmlns="http://www.w3.org/2000/svg">
  <!-- 배경 -->
  <rect width="600" height="400" fill="#f9f9f9"/>
  
  <!-- 유튜브 대시보드 윤곽 -->
  <rect x="50" y="50" width="500" height="300" rx="10" ry="10" fill="white" stroke="#e0e0e0" stroke-width="2"/>
  
  <!-- 상단 바 -->
  <rect x="50" y="50" width="500" height="50" rx="10" ry="10" fill="#ff0000"/>
  <circle cx="85" cy="75" r="15" fill="white"/>
  <text x="110" y="82" font-family="Arial" font-size="16" fill="white">유튜브 좋아요 영상 필터</text>
  
  <!-- 사이드바 -->
  <rect x="50" y="100" width="120" height="250" fill="#f5f5f5"/>
  
  <!-- 필터 영역 -->
  <rect x="65" y="120" width="90" height="20" rx="5" ry="5" fill="white" stroke="#e0e0e0" stroke-width="1"/>
  <rect x="65" y="150" width="90" height="20" rx="5" ry="5" fill="white" stroke="#e0e0e0" stroke-width="1"/>
  <rect x="65" y="180" width="90" height="20" rx="5" ry="5" fill="white" stroke="#e0e0e0" stroke-width="1"/>
  <rect x="65" y="210" width="90" height="20" rx="5" ry="5" fill="#ff0000" stroke="#cc0000" stroke-width="1"/>
  
  <!-- 영상 그리드 -->
  <rect x="190" y="120" width="100" height="80" rx="5" ry="5" fill="white" stroke="#e0e0e0" stroke-width="1"/>
  <rect x="190" y="210" width="100" height="80" rx="5" ry="5" fill="white" stroke="#e0e0e0" stroke-width="1"/>
  <rect x="310" y="120" width="100" height="80" rx="5" ry="5" fill="white" stroke="#e0e0e0" stroke-width="1"/>
  <rect x="310" y="210" width="100" height="80" rx="5" ry="5" fill="white" stroke="#e0e0e0" stroke-width="1"/>
  <rect x="430" y="120" width="100" height="80" rx="5" ry="5" fill="white" stroke="#e0e0e0" stroke-width="1"/>
  <rect x="430" y="210" width="100" height="80" rx="5" ry="5" fill="white" stroke="#e0e0e0" stroke-width="1"/>
  
  <!-- 썸네일 이미지 대신 플레이 버튼 -->
  <polygon points="230,150 230,170 245,160" fill="#ff0000"/>
  <polygon points="350,150 350,170 365,160" fill="#ff0000"/>
  <polygon points="470,150 470,170 485,160" fill="#ff0000"/>
  <polygon points="230,240 230,260 245,250" fill="#ff0000"/>
  <polygon points="350,240 350,260 365,250" fill="#ff0000"/>
  <polygon points="470,240 470,260 485,250" fill="#ff0000"/>
  
  <!-- 페이지네이션 -->
  <rect x="270" y="310" width="60" height="20" rx="5" ry="5" fill="#f5f5f5" stroke="#e0e0e0" stroke-width="1"/>
</svg>