<?xml version="1.0" encoding="UTF-8" standalone="no"?>
<svg width="128" height="128" viewBox="0 0 128 128" fill="none" xmlns="http://www.w3.org/2000/svg">
  <rect width="128" height="128" rx="24" fill="#CC0000"/>
  <path d="M85.8 43H42.2C33.3 43 26 50.3 26 59.2V68.8C26 77.7 33.3 85 42.2 85H85.8C94.7 85 102 77.7 102 68.8V59.2C102 50.3 94.7 43 85.8 43Z" fill="white"/>
  <path d="M56 58L72 64L56 70V58Z" fill="#CC0000"/>
  <path d="M102 59.5159V43.5C102 35.5 95.5 29 87.5 29H40.5C32.5 29 26 35.5 26 43.5V59.5159M26 68.4841V84.5C26 92.5 32.5 99 40.5 99H87.5C95.5 99 102 92.5 102 84.5V68.4841" stroke="white" stroke-width="4"/>
  <circle cx="64" cy="23" r="8" fill="white"/>
  <path d="M85 36L97 24" stroke="white" stroke-width="4" stroke-linecap="round"/>
  <path d="M43 36L31 24" stroke="white" stroke-width="4" stroke-linecap="round"/>
</svg>