<svg xmlns="http://www.w3.org/2000/svg" viewBox="0 0 128 128" width="128" height="128">
  <defs>
    <linearGradient id="gradient" x1="0%" y1="0%" x2="100%" y2="100%">
      <stop offset="0%" stop-color="#FF0000" />
      <stop offset="100%" stop-color="#990000" />
    </linearGradient>
    <filter id="shadow" x="-10%" y="-10%" width="120%" height="120%">
      <feDropShadow dx="0" dy="2" stdDeviation="2" flood-opacity="0.3" />
    </filter>
  </defs>
  
  <!-- Background -->
  <rect width="128" height="128" rx="16" fill="white" filter="url(#shadow)" />
  
  <!-- YouTube Player -->
  <rect x="14" y="32" width="100" height="64" rx="8" fill="url(#gradient)" />
  <polygon points="54,74 54,54 74,64" fill="white" />
  
  <!-- Controls -->
  <rect x="30" y="104" width="68" height="4" rx="2" fill="#333" />
  <rect x="44" y="112" width="40" height="4" rx="2" fill="#333" />
  
  <!-- Heart icon for "liked" -->
  <circle cx="96" cy="24" r="12" fill="#FF0000" stroke="white" stroke-width="2" />
  <path d="M90,22l6,6l6,-6" stroke="white" stroke-width="3" stroke-linecap="round" stroke-linejoin="round" fill="none" />
  <path d="M90,22c0,-3.3 2.7,-6 6,-6" stroke="white" stroke-width="3" stroke-linecap="round" stroke-linejoin="round" fill="none" />
  <path d="M102,22c0,-3.3 -2.7,-6 -6,-6" stroke="white" stroke-width="3" stroke-linecap="round" stroke-linejoin="round" fill="none" />
  
  <!-- Filter icon -->
  <circle cx="32" cy="24" r="12" fill="#4285F4" stroke="white" stroke-width="2" />
  <path d="M24,20h16M26,24h12M28,28h8" stroke="white" stroke-width="2.5" stroke-linecap="round" />
  
  <!-- Shine effect -->
  <path d="M14,76L44,46" stroke="white" stroke-width="1.5" stroke-opacity="0.3" />
  <path d="M54,86L84,56" stroke="white" stroke-width="1.5" stroke-opacity="0.3" />
</svg>
