<svg xmlns="http://www.w3.org/2000/svg" viewBox="0 0 16 16" width="16" height="16">
  <defs>
    <linearGradient id="gradient" x1="0%" y1="0%" x2="100%" y2="100%">
      <stop offset="0%" stop-color="#FF0000" />
      <stop offset="100%" stop-color="#990000" />
    </linearGradient>
  </defs>
  <rect width="16" height="16" rx="3" fill="white" />
  <path d="M13.5,4.5H2.5c-0.6,0-1,0.4-1,1v5c0,0.6,0.4,1,1,1h11c0.6,0,1-0.4,1-1v-5C14.5,4.9,14.1,4.5,13.5,4.5z" fill="url(#gradient)"/>
  <polygon points="7,9.5 7,6.5 10,8" fill="white"/>
  <path d="M4,12.5h8M6,14.5h4" stroke="#333" stroke-width="0.75" stroke-linecap="round"/>
  <circle cx="12" cy="3" r="1.25" fill="#FF0000" stroke="white" stroke-width="0.5"/>
  <path d="M11.2,2.7l1.6,0.6M11.2,3.3l1.6,-0.6" stroke="white" stroke-width="0.5" stroke-linecap="round"/>
</svg>
